<svg id="Group_103" data-name="Group 103" xmlns="http://www.w3.org/2000/svg" xmlns:xlink="http://www.w3.org/1999/xlink" width="108.72" height="137.757" viewBox="0 0 108.72 137.757">
  <defs>
    <clipPath id="clip-path">
      <rect id="Rectangle_164" data-name="Rectangle 164" width="108.72" height="137.757" fill="#51734e"/>
    </clipPath>
  </defs>
  <g id="Group_102" data-name="Group 102" clip-path="url(#clip-path)">
    <path id="Path_30" data-name="Path 30" d="M67.474,65.906H63.638a13.887,13.887,0,0,0-27.774,0H32.029a17.722,17.722,0,0,1,35.445,0" transform="translate(7.397 11.127)" fill="#51734e"/>
    <rect id="Rectangle_159" data-name="Rectangle 159" width="3.836" height="3.793" transform="translate(55.231 68.812)" fill="#51734e"/>
    <rect id="Rectangle_160" data-name="Rectangle 160" width="3.79" height="3.836" transform="translate(64.294 74.904)" fill="#51734e"/>
    <path id="Path_31" data-name="Path 31" d="M73.193,112.31H35.526l-.339-.133c-19.366-7.65-33.106-26.529-35-48.1L0,61.994H108.72l-.185,2.085c-1.9,21.568-15.638,40.447-35,48.1ZM36.26,108.474h36.2c17.226-6.955,29.606-23.511,32.031-42.645H4.228c2.426,19.134,14.8,35.69,32.031,42.645" transform="translate(0 14.317)" fill="#51734e"/>
    <path id="Path_32" data-name="Path 32" d="M68.371,114.72H27.6V99.754H68.371Zm-36.937-3.836h33.1V103.59h-33.1Z" transform="translate(6.374 23.037)" fill="#51734e"/>
    <path id="Path_33" data-name="Path 33" d="M38.77,96.176c-13.378-6.4-19.541-21.141-19.8-21.765l3.549-1.455c.058.139,5.883,14.013,17.9,19.759Z" transform="translate(4.382 16.848)" fill="#51734e"/>
    <path id="Path_34" data-name="Path 34" d="M67.48,52.934a21.53,21.53,0,0,1-15.55-6.6L50.6,44.957,81.691,14.989l1.332,1.381A21.581,21.581,0,0,1,67.48,52.934M56.1,44.986a17.759,17.759,0,0,0,25.423-24.5Z" transform="translate(11.685 3.462)" fill="#51734e"/>
    <rect id="Rectangle_161" data-name="Rectangle 161" width="3.835" height="12.858" transform="matrix(0.72, -0.694, 0.694, 0.72, 79.735, 38.175)" fill="#51734e"/>
    <rect id="Rectangle_162" data-name="Rectangle 162" width="8.106" height="3.836" transform="matrix(0.016, -1, 1, 0.016, 75.364, 50.258)" fill="#51734e"/>
    <rect id="Rectangle_163" data-name="Rectangle 163" width="3.836" height="8.106" transform="translate(86.549 35.253) rotate(-88.773)" fill="#51734e"/>
    <path id="Path_35" data-name="Path 35" d="M18.531,43.293A14.559,14.559,0,1,1,33.09,28.735,14.575,14.575,0,0,1,18.531,43.293m0-25.282A10.723,10.723,0,1,0,29.255,28.735,10.737,10.737,0,0,0,18.531,18.011" transform="translate(0.918 3.274)" fill="#51734e"/>
    <path id="Path_36" data-name="Path 36" d="M17.5,36.757A9.056,9.056,0,1,1,26.555,27.7,9.065,9.065,0,0,1,17.5,36.757m0-14.276a5.22,5.22,0,1,0,5.22,5.222,5.227,5.227,0,0,0-5.22-5.222" transform="translate(1.95 4.306)" fill="#51734e"/>
    <path id="Path_37" data-name="Path 37" d="M12.545,65.046a7.7,7.7,0,1,1,7.7-7.7,7.711,7.711,0,0,1-7.7,7.7m0-11.571a3.868,3.868,0,1,0,3.868,3.866,3.871,3.871,0,0,0-3.868-3.866" transform="translate(1.118 11.464)" fill="#51734e"/>
    <path id="Path_38" data-name="Path 38" d="M73.951,61.065a5.3,5.3,0,1,1,5.3-5.3,5.306,5.306,0,0,1-5.3,5.3m0-6.768a1.466,1.466,0,1,0,1.465,1.467A1.467,1.467,0,0,0,73.951,54.3" transform="translate(15.854 11.654)" fill="#51734e"/>
    <path id="Path_39" data-name="Path 39" d="M40.134,28.055,29.611,8.1,44.971,0,55.493,19.956ZM34.792,9.7l6.945,13.172,8.575-4.521L43.367,5.181Z" transform="translate(6.838)" fill="#51734e"/>
    <path id="Path_40" data-name="Path 40" d="M33.462,51.436q-1.453,0-2.938-.132c-3.795-.342-8.6-1.3-12.112-5.745-.515-.651-2.1-2.906-.868-4.575.42-.57,1.429-1.407,3.471-.614,6.125,2.374,9.454-.449,14.06-4.361.478-.407.964-.82,1.46-1.232a21.447,21.447,0,0,1,6.407-4.11A8.233,8.233,0,0,1,54.005,40.74c-.063.213-.133.426-.212.635a9.7,9.7,0,0,1-2.515,3.7c-4.49,4.111-10.867,6.363-17.817,6.363m-10.326-6.52c1.865,1.48,4.27,2.256,7.732,2.568,7.009.635,13.5-1.28,17.823-5.24v0a5.764,5.764,0,0,0,1.493-2.164c.062-.166.1-.289.139-.414a4.7,4.7,0,0,0-1.432-4.868,4.785,4.785,0,0,0-4.676-.512,18.286,18.286,0,0,0-5.229,3.442c-.485.4-.96.809-1.429,1.206-4.04,3.433-8.2,6.97-14.422,5.985" transform="translate(3.946 6.947)" fill="#51734e"/>
    <path id="Path_41" data-name="Path 41" d="M44.9,36.024l-1.594-3.487a8.979,8.979,0,0,0,4.547-6.414l3.773.692a12.821,12.821,0,0,1-6.726,9.21" transform="translate(10.001 6.033)" fill="#51734e"/>
  </g>
</svg>
