<svg id="Group_108" data-name="Group 108" xmlns="http://www.w3.org/2000/svg" xmlns:xlink="http://www.w3.org/1999/xlink" width="138.399" height="138.399" viewBox="0 0 138.399 138.399">
  <defs>
    <clipPath id="clip-path">
      <rect id="Rectangle_169" data-name="Rectangle 169" width="138.399" height="138.399" fill="#51734e"/>
    </clipPath>
  </defs>
  <g id="Group_107" data-name="Group 107" transform="translate(0 0)" clip-path="url(#clip-path)">
    <path id="Path_57" data-name="Path 57" d="M98.6,20.363A6.432,6.432,0,0,0,96.71,15.8h0a6.449,6.449,0,0,0-9.127,0L79.6,23.786l-3.566-3.566a3.244,3.244,0,0,0-2.285-.968,2.864,2.864,0,0,0-2.032.831l-8.172,8.17a3.114,3.114,0,0,0-3.805.486l-2.177,2.177a3.153,3.153,0,0,0,0,4.458L62.786,40.6,36.232,67.155a1.727,1.727,0,0,0-.505,1.222,1.658,1.658,0,0,1-.138.571,8.6,8.6,0,0,1-1.162,1.868C33.6,71.91,32.5,73.123,31.55,74.391a12.863,12.863,0,0,0-1.258,2,5.436,5.436,0,0,0-.608,2.37,3.891,3.891,0,0,0,.3,1.518,4.364,4.364,0,0,0,2.252,2.247,3.86,3.86,0,0,0,1.519.3,5.12,5.12,0,0,0,1.856-.375,11.931,11.931,0,0,0,2.721-1.621c1.271-.96,2.49-2.06,3.568-2.863a9.737,9.737,0,0,1,1.434-.926,1.985,1.985,0,0,1,.8-.254,1.711,1.711,0,0,0,1.219-.5L71.913,49.726l5.224,5.224a3.151,3.151,0,0,0,4.455,0l-1.219-1.223,1.221,1.221,2.178-2.177a3.119,3.119,0,0,0,.485-3.808l8.172-8.172.009-.007a2.87,2.87,0,0,0,.818-2.024,3.242,3.242,0,0,0-.967-2.286l-3.563-3.563,7.985-7.986a6.441,6.441,0,0,0,1.89-4.564M43.329,73.428a5.635,5.635,0,0,0-1.017.292,11.926,11.926,0,0,0-2.658,1.621c-1.248.954-2.462,2.045-3.551,2.848a9.661,9.661,0,0,1-1.464.922,2.163,2.163,0,0,1-.881.264l-.186-.034a.721.721,0,0,1-.232-.169.76.76,0,0,1-.172-.234l-.031-.176a1.635,1.635,0,0,1,.139-.585A8.482,8.482,0,0,1,34.435,76.3c.829-1.1,1.929-2.308,2.875-3.571a12.8,12.8,0,0,0,1.257-1.992,6.048,6.048,0,0,0,.528-1.562L65.148,43.119l4.243,4.244ZM79.366,52.3,60.214,33.147l1.754-1.752,1.447,1.446,0,0L79.67,49.1l0,0,0,0,1.442,1.441ZM89.637,38.7,81.9,46.441,66.07,30.614l7.736-7.738ZM94.27,22.485l-7.857,7.857L82.17,26.1l7.857-7.858a3,3,0,0,1,4.243,0l0,0a3,3,0,0,1,0,4.242" transform="translate(8.987 4.211)" fill="#51734e"/>
    <path id="Path_58" data-name="Path 58" d="M51.082,26.967l0,0,0,0Z" transform="translate(15.465 8.163)" fill="#51734e"/>
    <path id="Path_59" data-name="Path 59" d="M40.378,75.2c-1-1.875-1.97-3.53-2.766-4.752-.4-.614-.75-1.116-1.072-1.515a4.948,4.948,0,0,0-.516-.559,2.311,2.311,0,0,0-.4-.3,1.861,1.861,0,0,0-2.034.046,3.34,3.34,0,0,0-.681.625,15.129,15.129,0,0,0-1.087,1.483,76.606,76.606,0,0,0-5.147,9.484,51.686,51.686,0,0,0-2.212,5.567A16.885,16.885,0,0,0,23.5,90.21a13.3,13.3,0,0,0,3.184,8.761,10.325,10.325,0,0,0,15.921,0,13.3,13.3,0,0,0,3.184-8.761,13.013,13.013,0,0,0-.416-3.005,57.184,57.184,0,0,0-5-12.006m-.371,21.5a6.875,6.875,0,0,1-10.719,0,9.468,9.468,0,0,1-2.014-8.685,54.289,54.289,0,0,1,4.687-11.191c.958-1.8,1.894-3.39,2.613-4.493.023-.038.047-.072.07-.107.417.631.908,1.425,1.438,2.348a78.035,78.035,0,0,1,4.191,8.391,38.659,38.659,0,0,1,1.51,4.168,11.95,11.95,0,0,1,.555,3.081A9.859,9.859,0,0,1,40.007,96.7" transform="translate(7.115 20.524)" fill="#51734e"/>
    <path id="Path_60" data-name="Path 60" d="M33.91,89.732v0A5.4,5.4,0,0,1,30.6,85.079a1.727,1.727,0,0,0-3.435.357,8.832,8.832,0,0,0,5.61,7.556,1.726,1.726,0,0,0,1.137-3.259" transform="translate(8.221 25.289)" fill="#51734e"/>
    <path id="Path_61" data-name="Path 61" d="M69.2,138.4a69.2,69.2,0,1,1,69.2-69.2,69.278,69.278,0,0,1-69.2,69.2m0-134.34A65.141,65.141,0,1,0,134.341,69.2,65.217,65.217,0,0,0,69.2,4.059" transform="translate(0 0)" fill="#51734e"/>
    <rect id="Rectangle_167" data-name="Rectangle 167" width="4.059" height="48.921" transform="translate(20.542 22.864) rotate(-44.758)" fill="#51734e"/>
    <rect id="Rectangle_168" data-name="Rectangle 168" width="4.058" height="61.729" transform="translate(71.689 72.281) rotate(-44.81)" fill="#51734e"/>
  </g>
</svg>
