<svg xmlns="http://www.w3.org/2000/svg" xmlns:xlink="http://www.w3.org/1999/xlink" width="106.615" height="161.222" viewBox="0 0 106.615 161.222">
  <defs>
    <clipPath id="clip-path">
      <rect id="Rectangle_165" data-name="Rectangle 165" width="106.615" height="161.222" fill="#51734e"/>
    </clipPath>
  </defs>
  <g id="Group_104" data-name="Group 104" clip-path="url(#clip-path)">
    <path id="Path_42" data-name="Path 42" d="M53.608,80.209,64.077,64.237c1.463-2.231,2.941-4.454,4.389-6.7A5.755,5.755,0,0,1,72.8,54.733a5.592,5.592,0,0,1,5.909,4.411c.524,2.493-1.006,4.486-2.2,6.493q-2.575,4.305-5.146,8.612L59.271,94.491c-.758,1.269-1.466,2.587-2.3,3.808a33,33,0,0,1-4.236,5.349,67.582,67.582,0,0,1-6.569,5.5c-.906.679-1.821,1.347-2.761,1.977-1.957,1.314-.117,4.5,1.856,3.178,2.351-1.58,4.6-3.332,6.781-5.136a35.411,35.411,0,0,0,5.965-6.021A60.981,60.981,0,0,0,61.581,97.8L73.6,77.684l5.679-9.5c1.226-2.053,2.752-4.142,3.106-6.553a9.192,9.192,0,0,0-14.017-9.156c-2.437,1.575-3.925,4.509-5.487,6.893L50.707,77.93l-.276.422c-1.3,1.987,1.882,3.831,3.177,1.857" transform="translate(18.676 22.396)" fill="#51734e"/>
    <path id="Path_43" data-name="Path 43" d="M34.9,88.029a22.826,22.826,0,0,1,9.021-12.245,17.348,17.348,0,0,1,5.825-2.5c.376-.081-.095-.014.286-.049.2-.019.407-.027.611-.03a12.475,12.475,0,0,1,1.429.065,20.9,20.9,0,0,1,2.738.489q1.433.335,2.834.781c.306.1.611.2.915.3a3.083,3.083,0,0,0,.334.122c.256.062-.442-.21-.253-.105,2.069,1.16,3.926-2.018,1.857-3.177a17,17,0,0,0-4.051-1.314,19.136,19.136,0,0,0-6.608-.8c-5.2.567-10.111,4.082-13.352,8.018A28.033,28.033,0,0,0,31.35,87.05c-.709,2.265,2.841,3.234,3.548.978" transform="translate(13.712 30.495)" fill="#51734e"/>
    <path id="Path_44" data-name="Path 44" d="M11.389,120.954a50.186,50.186,0,0,1-6.952-16.91,29.354,29.354,0,0,1-.515-4.513c-.059-1.734-.239-3.461-.286-5.194-.02-.742.072-1.476.078-2.217q.047-6.567.1-13.134.078-10.579.158-21.156.058-7.944.118-15.885a11.871,11.871,0,0,1,.407-4.093,6.276,6.276,0,0,1,10.826-1.5,6.366,6.366,0,0,1,1.2,3.689c.043,2.365,3.722,2.372,3.679,0a10.09,10.09,0,0,0-4.345-8.183,9.878,9.878,0,0,0-8.717-1.184A10.093,10.093,0,0,0,.42,40.26c-.039,4.309-.063,8.618-.1,12.928L.16,75.267q-.06,8-.119,16c0,.42.01.845-.01,1.263-.114,2.388.124,4.772.219,7.162.272,6.756,2.62,13.332,5.748,19.267q1.036,1.968,2.216,3.853c1.249,2.006,4.434.16,3.177-1.857" transform="translate(0 13.228)" fill="#51734e"/>
    <path id="Path_45" data-name="Path 45" d="M15.35,78.071,15.3,59.156,15.238,33.7c0-.67-.012-1.341,0-2.011A6.211,6.211,0,0,1,27.29,29.533c.022.062.239.925.17.351,0,.017,0,.035,0,.052.009.088,0,.18,0,.269,0,.358,0,.715,0,1.073q.035,12.156.069,24.311c.02,7.284-.055,14.575.062,21.858,0,.121,0,.243,0,.364.006,2.367,3.686,2.371,3.679,0q-.028-9.7-.055-19.395-.039-13.194-.075-26.388c0-.695.029-1.4-.006-2.092a7.973,7.973,0,0,0-1.594-3.948,10.113,10.113,0,0,0-5.287-3.823,9.938,9.938,0,0,0-10.439,3.2,10.294,10.294,0,0,0-2.264,6.586c0,7.544.037,15.088.058,22.632q.028,11.537.058,23.075c0,.137,0,.275,0,.411a1.84,1.84,0,0,0,3.679,0" transform="translate(5.069 9.547)" fill="#51734e"/>
    <path id="Path_46" data-name="Path 46" d="M22.639,33.02v.019h3.679c-.115-2.653-.063-5.325-.092-7.98a6.742,6.742,0,0,1,1.256-4.341,6.213,6.213,0,0,1,10.964,2.208,13.4,13.4,0,0,1,.157,3.64c-.056,2.843-.144,5.684-.157,8.524-.016,3.764.023,7.532.035,11.294q.03,10.566.062,21.126c.013,4.405-.088,8.826.039,13.23,0,.07,0,.144,0,.214.007,2.368,3.687,2.372,3.68,0l-.035-11.781q-.032-10.989-.065-21.975c-.013-4.036-.053-8.071-.036-12.107.012-2.939.1-5.881.161-8.822a14.6,14.6,0,0,0-.371-4.6,9.889,9.889,0,0,0-19.191.947,23.116,23.116,0,0,0-.158,4.244q.028,2.566.058,5.13c0,.347,0,.7.014,1.047a1.84,1.84,0,0,0,3.679,0V33.02c.009-2.367-3.67-2.37-3.679,0" transform="translate(9.89 6.403)" fill="#51734e"/>
    <path id="Path_47" data-name="Path 47" d="M37.209,30.553a6.286,6.286,0,0,1,9.846-3.672A6.724,6.724,0,0,1,49.5,32.571V80.6c0,3.08-.115,6.183,0,9.262,0,.046,0,.092,0,.138a1.84,1.84,0,0,0,3.679,0V32.419a10.248,10.248,0,0,0-3.523-8.14,10,10,0,0,0-14.467,1.9,9.731,9.731,0,0,0-1.528,3.4c-.555,2.3,2.991,3.283,3.548.978" transform="translate(14.741 9.653)" fill="#51734e"/>
    <path id="Path_48" data-name="Path 48" d="M12.407,119.235a33.48,33.48,0,0,0,1.08-4.253,24.48,24.48,0,0,0-.6-8.756A81.583,81.583,0,0,0,9.155,93.984,1.894,1.894,0,0,0,6.892,92.7a1.851,1.851,0,0,0-1.285,2.263A84.146,84.146,0,0,1,9.2,106.589a21.248,21.248,0,0,1,.7,7.685,30.933,30.933,0,0,1-1.042,3.982c-.646,2.283,2.9,3.257,3.548.978" transform="translate(2.419 40.637)" fill="#51734e"/>
    <path id="Path_49" data-name="Path 49" d="M43.8,93.981c-.308,2.093-1.357,3.893-1.994,5.886a51.122,51.122,0,0,0-1.6,7.373,23.843,23.843,0,0,0,.67,11.991,1.887,1.887,0,0,0,2.263,1.285,1.856,1.856,0,0,0,1.286-2.263,19.188,19.188,0,0,1-.8-2.876c-.039-.2-.068-.4-.1-.6.089.544-.045-.469-.058-.627a26.336,26.336,0,0,1,.406-6.638,49.559,49.559,0,0,1,1.557-6.9c.633-1.908,1.62-3.634,1.916-5.648A1.9,1.9,0,0,0,46.061,92.7,1.853,1.853,0,0,0,43.8,93.981" transform="translate(17.44 40.64)" fill="#51734e"/>
    <path id="Path_50" data-name="Path 50" d="M35.91,98.919a33.043,33.043,0,0,0,7.176-1.193c1.806-.527,3.6-1.079,5.438-1.485,2.312-.511,1.334-4.059-.978-3.548-3.92.866-7.592,2.295-11.636,2.546-2.352.145-2.368,3.825,0,3.679" transform="translate(14.977 40.642)" fill="#51734e"/>
    <path id="Path_51" data-name="Path 51" d="M19.761,96.458a10.5,10.5,0,0,1-6.405-.77c-1.762-.829-3.342-2.108-5.056-3.051-2.076-1.144-3.933,2.033-1.857,3.177,1.98,1.091,3.785,2.552,5.878,3.408a13.986,13.986,0,0,0,8.418.784c2.3-.554,1.326-4.1-.978-3.548" transform="translate(2.428 40.531)" fill="#51734e"/>
    <path id="Path_52" data-name="Path 52" d="M58.325,2.332l4.408,11.422,1.046,2.712a5.511,5.511,0,0,0,.865,1.826,8.039,8.039,0,0,0,1.634,1.033l3.057,1.806,5.581,3.3V21.248c-3.273,1.932-6.667,3.736-9.848,5.815C63.936,27.8,63.474,30,63.012,31.2q-1.383,3.587-2.768,7.172-.96,2.486-1.919,4.974h3.548q-2.2-5.712-4.408-11.422-.522-1.357-1.046-2.713a5.517,5.517,0,0,0-.865-1.824,8.039,8.039,0,0,0-1.634-1.033q-1.528-.9-3.057-1.806l-5.581-3.3v3.178c3.273-1.934,6.667-3.736,9.848-5.815,1.132-.741,1.594-2.938,2.056-4.133q1.383-3.587,2.768-7.172.96-2.486,1.919-4.974A1.853,1.853,0,0,0,60.588.069a1.882,1.882,0,0,0-2.263,1.285L53.215,14.6q-.369.952-.735,1.9l.845-1.1-9.9,5.845a1.86,1.86,0,0,0,0,3.178q4.951,2.922,9.9,5.845-.423-.55-.845-1.1l5.11,13.242q.367.954.735,1.906a1.859,1.859,0,0,0,3.548,0l5.11-13.243q.369-.952.735-1.9-.423.548-.845,1.1,4.948-2.924,9.9-5.845a1.86,1.86,0,0,0,0-3.178l-9.9-5.845.845,1.1L62.608,3.26q-.367-.954-.735-1.906A1.893,1.893,0,0,0,59.61.069a1.854,1.854,0,0,0-1.285,2.263" transform="translate(18.658 0)" fill="#51734e"/>
    <path id="Path_53" data-name="Path 53" d="M67.014,26.521q1.662,4.307,3.325,8.615.4,1.029.793,2.056a4.365,4.365,0,0,0,.739,1.5,6.287,6.287,0,0,0,1.28.823l2.335,1.38,4.182,2.469V40.188c-2.453,1.449-5.012,2.79-7.386,4.362-.961.636-1.324,2.262-1.722,3.295l-2.1,5.432q-.723,1.877-1.449,3.756h3.548q-1.662-4.31-3.325-8.616-.4-1.027-.793-2.054a4.34,4.34,0,0,0-.739-1.5,6.355,6.355,0,0,0-1.28-.824l-2.335-1.378-4.182-2.47v3.177c2.453-1.447,5.012-2.788,7.386-4.361.961-.636,1.324-2.262,1.722-3.3l2.1-5.432q.723-1.877,1.449-3.755a1.853,1.853,0,0,0-1.285-2.263,1.882,1.882,0,0,0-2.263,1.285L62.629,36.9l.846-1.1-7.425,4.384a1.859,1.859,0,0,0,0,3.177l7.425,4.385-.846-1.1,4.385,11.36a1.858,1.858,0,0,0,3.548,0l4.385-11.36-.846,1.1,7.425-4.385a1.859,1.859,0,0,0,0-3.177L74.1,35.8l.846,1.1L70.561,25.543A1.893,1.893,0,0,0,68.3,24.258a1.854,1.854,0,0,0-1.285,2.263" transform="translate(24.196 10.612)" fill="#51734e"/>
  </g>
</svg>
