<svg xmlns="http://www.w3.org/2000/svg" width="12.872" height="12.869" viewBox="0 0 12.872 12.869">
  <path id="Icon_awesome-instagram" data-name="Icon awesome-instagram" d="M6.432,5.373a3.3,3.3,0,1,0,3.3,3.3A3.294,3.294,0,0,0,6.432,5.373Zm0,5.445A2.145,2.145,0,1,1,8.577,8.672,2.149,2.149,0,0,1,6.432,10.817Zm4.2-5.58a.77.77,0,1,1-.77-.77A.768.768,0,0,1,10.636,5.238Zm2.185.781a3.809,3.809,0,0,0-1.04-2.7,3.834,3.834,0,0,0-2.7-1.04c-1.063-.06-4.247-.06-5.31,0a3.828,3.828,0,0,0-2.7,1.037,3.821,3.821,0,0,0-1.04,2.7c-.06,1.063-.06,4.247,0,5.31a3.809,3.809,0,0,0,1.04,2.7,3.838,3.838,0,0,0,2.7,1.04c1.063.06,4.247.06,5.31,0a3.809,3.809,0,0,0,2.7-1.04,3.834,3.834,0,0,0,1.04-2.7c.06-1.063.06-4.244,0-5.307Zm-1.373,6.447a2.172,2.172,0,0,1-1.223,1.223,14.183,14.183,0,0,1-3.793.258,14.293,14.293,0,0,1-3.793-.258,2.172,2.172,0,0,1-1.223-1.223,14.183,14.183,0,0,1-.258-3.793,14.294,14.294,0,0,1,.258-3.793A2.172,2.172,0,0,1,2.639,3.656,14.183,14.183,0,0,1,6.432,3.4a14.293,14.293,0,0,1,3.793.258,2.172,2.172,0,0,1,1.223,1.223,14.183,14.183,0,0,1,.258,3.793A14.175,14.175,0,0,1,11.449,12.466Z" transform="translate(0.005 -2.238)" fill="#fcfdff"/>
</svg>
