<svg id="Group_106" data-name="Group 106" xmlns="http://www.w3.org/2000/svg" xmlns:xlink="http://www.w3.org/1999/xlink" width="74.821" height="141.964" viewBox="0 0 74.821 141.964">
  <defs>
    <clipPath id="clip-path">
      <rect id="Rectangle_166" data-name="Rectangle 166" width="74.821" height="141.964" fill="#51734e"/>
    </clipPath>
  </defs>
  <g id="Group_105" data-name="Group 105" transform="translate(0 0)" clip-path="url(#clip-path)">
    <path id="Path_55" data-name="Path 55" d="M64.672,86.868l7.5-11.933A17.185,17.185,0,0,0,74.8,64.868l-.831-16.333A17.319,17.319,0,0,0,61.792,32.907L47.3,28.454c-.041-1.232-.067-2.351-.086-3.326a17.632,17.632,0,0,1,.6-4.881l1.66-6.2a4.934,4.934,0,0,0-4.766-6.209h-.147l.651-5.779A1.852,1.852,0,0,0,43.375,0H28.422a1.85,1.85,0,0,0-1.839,2.058l.658,5.848a11.121,11.121,0,0,0-6.993,3.565L17.5,14.491a4.318,4.318,0,0,0,3.194,7.221H24.06a1.235,1.235,0,0,1,1.234,1.232V31c-.565,11.078-2.371,31.293-8.123,42.6a70.27,70.27,0,0,1-9.5,13.8C2.26,93.92-2.014,99.067.995,110.67A154.666,154.666,0,0,0,9.89,135.483a11.118,11.118,0,0,0,10.094,6.482H52.805A11.119,11.119,0,0,0,62.9,135.482a154.773,154.773,0,0,0,8.895-24.811c3.008-11.6-1.267-16.75-6.678-23.266l-.444-.536m3.54,22.874a151.063,151.063,0,0,1-8.678,24.2,7.41,7.41,0,0,1-6.729,4.319H19.984a7.41,7.41,0,0,1-6.729-4.319,151,151,0,0,1-8.68-24.2c-2.532-9.768.658-13.609,5.943-19.974a74.29,74.29,0,0,0,9.949-14.49c5.768-11.336,7.82-30.259,8.525-44.136,0-.032,0-.063,0-.094v-8.1a4.934,4.934,0,0,0-4.933-4.933H20.694a.616.616,0,0,1-.456-1.03l2.746-3.022a7.42,7.42,0,0,1,5.476-2.422H44.709A1.234,1.234,0,0,1,45.9,13.09l-1.66,6.2a21.354,21.354,0,0,0-.725,5.9c.012.728.03,1.534.057,2.4q.026.882.061,1.852.034.9.078,1.858c.082,1.791.193,3.749.342,5.825q.069.975.152,1.983c.053.653.11,1.317.172,1.988,1.03,11.311,3.237,24.922,7.944,34.173.664,1.305,1.345,2.524,2.032,3.673q.539.9,1.084,1.751c.374.583.749,1.143,1.124,1.687C57.732,84.091,58.893,85.616,60,87q.594.743,1.168,1.437t1.1,1.329l.082.1c5.236,6.3,8.381,10.158,5.861,19.875M40.84,7.837H30.956L30.491,3.7H41.305ZM60.707,36.443a13.608,13.608,0,0,1,9.565,12.28L71.1,65.057a13.494,13.494,0,0,1-2.063,7.908L62.21,83.831c-1.152-1.47-2.327-3.071-3.5-4.869l5.626-8.95a7.978,7.978,0,0,0,1.219-4.673l-.831-16.333a8.042,8.042,0,0,0-5.652-7.257L47.846,38.3c-.164-2.094-.288-4.084-.382-5.923ZM55.618,73.6c-4.26-8.373-6.375-20.689-7.422-31.322l9.793,3.009a4.327,4.327,0,0,1,3.043,3.907l.831,16.333a4.279,4.279,0,0,1-.656,2.516L56.58,75.405c-.322-.584-.645-1.181-.962-1.806" transform="translate(0 0)" fill="#51734e"/>
    <path id="Path_56" data-name="Path 56" d="M28.52,49.115a1.85,1.85,0,0,0-2.276,1.292A58.91,58.91,0,0,1,22.17,61.356,77.784,77.784,0,0,1,11.733,76.588C6.666,82.689,4.57,85.215,6.587,93a1.851,1.851,0,0,0,1.79,1.386,1.886,1.886,0,0,0,.465-.059,1.851,1.851,0,0,0,1.327-2.255c-.221-.847-.386-1.6-.5-2.279-.672-4.113.682-5.748,4.907-10.837.159-.19.32-.384.481-.58A78.938,78.938,0,0,0,25.469,63.033,62.551,62.551,0,0,0,29.812,51.39a1.849,1.849,0,0,0-1.292-2.275" transform="translate(1.87 15.739)" fill="#51734e"/>
  </g>
</svg>
