<svg xmlns="http://www.w3.org/2000/svg" width="13.353" height="13.353" viewBox="0 0 13.353 13.353">
  <path id="Icon_awesome-linkedin-in" data-name="Icon awesome-linkedin-in" d="M2.989,13.353H.221V4.438H2.989ZM1.6,3.222A1.611,1.611,0,1,1,3.206,1.6,1.617,1.617,0,0,1,1.6,3.222ZM13.35,13.353H10.587V9.013c0-1.034-.021-2.361-1.439-2.361-1.439,0-1.66,1.124-1.66,2.286v4.414H4.723V4.438H7.378V5.654h.039a2.909,2.909,0,0,1,2.619-1.44c2.8,0,3.317,1.845,3.317,4.241v4.9Z" transform="translate(0 0)" fill="#fcfdff"/>
</svg>
