<svg xmlns="http://www.w3.org/2000/svg" xmlns:xlink="http://www.w3.org/1999/xlink" width="138.799" height="138.801" viewBox="0 0 138.799 138.801">
  <defs>
    <clipPath id="clip-path">
      <rect id="Rectangle_174" data-name="Rectangle 174" width="138.799" height="138.8" fill="#51734e"/>
    </clipPath>
  </defs>
  <g id="Group_112" data-name="Group 112" transform="translate(-7.732 -7.732)">
    <g id="Group_111" data-name="Group 111" transform="translate(7.732 7.732)" clip-path="url(#clip-path)">
      <path id="Path_65" data-name="Path 65" d="M102.188,2.49l0,0,0,0Z" transform="translate(32.111 0.781)" fill="#51734e"/>
      <path id="Path_66" data-name="Path 66" d="M91.633,50.787c-1.008-1.891-1.987-3.562-2.79-4.794-.4-.619-.757-1.126-1.082-1.528a4.992,4.992,0,0,0-.52-.564,2.331,2.331,0,0,0-.4-.3,1.877,1.877,0,0,0-2.052.046,3.37,3.37,0,0,0-.687.631,15.262,15.262,0,0,0-1.1,1.5,77.281,77.281,0,0,0-5.193,9.568,52.149,52.149,0,0,0-2.232,5.616,17.035,17.035,0,0,0-.973,4.978,13.418,13.418,0,0,0,3.212,8.838,10.416,10.416,0,0,0,16.061,0,13.418,13.418,0,0,0,3.212-8.838,13.127,13.127,0,0,0-.419-3.032,57.687,57.687,0,0,0-5.041-12.112m-.375,21.69a6.936,6.936,0,0,1-10.814,0,9.552,9.552,0,0,1-2.032-8.762,54.767,54.767,0,0,1,4.729-11.289c.966-1.814,1.911-3.42,2.636-4.533.024-.038.047-.072.071-.108.421.636.916,1.438,1.451,2.368a78.723,78.723,0,0,1,4.228,8.465,39,39,0,0,1,1.523,4.2,12.056,12.056,0,0,1,.56,3.108,9.946,9.946,0,0,1-2.352,6.546" transform="translate(23.445 13.611)" fill="#51734e"/>
      <path id="Path_67" data-name="Path 67" d="M85.077,65.31v0a5.451,5.451,0,0,1-3.342-4.692,1.741,1.741,0,0,0-3.464.36A8.9,8.9,0,0,0,83.929,68.6a1.741,1.741,0,0,0,1.147-3.288" transform="translate(24.592 18.557)" fill="#51734e"/>
      <path id="Path_68" data-name="Path 68" d="M69.4,138.8a69.4,69.4,0,1,1,69.4-69.4,69.478,69.478,0,0,1-69.4,69.4m0-135.524A66.124,66.124,0,1,0,135.523,69.4,66.2,66.2,0,0,0,69.4,3.276" transform="translate(0 0)" fill="#51734e"/>
      <rect id="Rectangle_172" data-name="Rectangle 172" width="3.275" height="49.812" transform="translate(81.188 82.952) rotate(-43.448)" fill="#51734e"/>
      <rect id="Rectangle_173" data-name="Rectangle 173" width="3.275" height="46.806" transform="matrix(0.714, -0.7, 0.7, 0.714, 20.596, 22.361)" fill="#51734e"/>
      <path id="Path_69" data-name="Path 69" d="M32.765,104.155a14.014,14.014,0,0,1-9.912-23.926L80.347,22.735,100.173,42.56l-57.5,57.5a13.979,13.979,0,0,1-9.913,4.1m-7.6-6.415a10.758,10.758,0,0,0,15.193,0l55.18-55.18L80.347,27.368,25.169,82.546a10.757,10.757,0,0,0,0,15.194" transform="translate(5.891 7.144)" fill="#51734e"/>
      <path id="Path_70" data-name="Path 70" d="M87.03,49.349,61.8,24.121,68.821,17.1,94.05,42.328Zm-20.6-25.228,20.6,20.6,2.388-2.389-20.6-20.6Z" transform="translate(19.419 5.373)" fill="#51734e"/>
    </g>
  </g>
</svg>
