<svg xmlns="http://www.w3.org/2000/svg" width="49" height="55" viewBox="0 0 49 55">
  <g id="Group_61" data-name="Group 61" transform="translate(-1298.932 -140.5)">
    <rect id="Rectangle_14" data-name="Rectangle 14" width="49" height="55" transform="translate(1298.932 140.5)" fill="#51734e"/>
    <path id="Icon_awesome-whatsapp" data-name="Icon awesome-whatsapp" d="M19.906,5.652a11.605,11.605,0,0,0-18.259,14L0,25.662l6.151-1.615A11.566,11.566,0,0,0,11.7,25.458H11.7a11.713,11.713,0,0,0,11.711-11.6,11.647,11.647,0,0,0-3.507-8.2ZM11.7,23.5a9.626,9.626,0,0,1-4.912-1.343l-.35-.209-3.648.956.972-3.559-.23-.366a9.662,9.662,0,1,1,17.92-5.127A9.751,9.751,0,0,1,11.7,23.5Zm5.289-7.222c-.287-.146-1.714-.847-1.981-.941s-.46-.146-.653.146-.747.941-.92,1.139-.34.219-.627.073a7.891,7.891,0,0,1-3.946-3.449c-.3-.512.3-.476.852-1.583a.537.537,0,0,0-.026-.507c-.073-.146-.653-1.573-.894-2.153-.235-.564-.476-.486-.653-.5s-.361-.01-.554-.01a1.074,1.074,0,0,0-.773.361A3.257,3.257,0,0,0,5.8,11.28a5.679,5.679,0,0,0,1.181,3,12.954,12.954,0,0,0,4.954,4.379c1.84.794,2.561.862,3.48.726a2.969,2.969,0,0,0,1.954-1.38,2.424,2.424,0,0,0,.167-1.38C17.47,16.5,17.277,16.423,16.989,16.282Z" transform="translate(1312.297 153.544)" fill="#fff"/>
  </g>
</svg>
