<svg xmlns="http://www.w3.org/2000/svg" width="18.046" height="12.689" viewBox="0 0 18.046 12.689">
  <path id="Icon_awesome-youtube" data-name="Icon awesome-youtube" d="M18.719,6.485a2.268,2.268,0,0,0-1.6-1.606,53.587,53.587,0,0,0-7.051-.38,53.587,53.587,0,0,0-7.051.38,2.268,2.268,0,0,0-1.6,1.606,23.787,23.787,0,0,0-.377,4.372,23.787,23.787,0,0,0,.377,4.372,2.234,2.234,0,0,0,1.6,1.58,53.587,53.587,0,0,0,7.051.38,53.587,53.587,0,0,0,7.051-.38,2.234,2.234,0,0,0,1.6-1.58,23.787,23.787,0,0,0,.377-4.372,23.787,23.787,0,0,0-.377-4.372ZM8.227,13.54V8.174l4.717,2.683L8.227,13.54Z" transform="translate(-1.05 -4.5)" fill="#fcfdff"/>
</svg>
